<svg width="91" height="46" viewBox="0 0 91 46" fill="none" xmlns="http://www.w3.org/2000/svg">
<path d="M45.0002 23.0003C45.0002 17.9772 46.6687 13.0963 49.7438 9.12435C52.8189 5.15242 57.1262 2.31446 61.9892 1.05625C66.8523 -0.201967 71.9955 0.190843 76.6111 2.17297C81.2266 4.15511 85.053 7.61427 87.4892 12.0071C89.9254 16.4 90.8334 21.4776 90.0706 26.4425C89.3078 31.4074 86.9173 35.9783 83.2747 39.4372C79.6322 42.8961 74.9438 45.047 69.9461 45.5521C64.9484 46.0572 59.9245 44.8879 55.6635 42.2278L67.6668 23.0003L45.0002 23.0003Z" fill="#D6B7FE"/>
<path d="M45.3333 23.0002C45.3333 28.019 43.6676 32.8959 40.5974 36.8662C37.5272 40.8364 33.2261 43.6754 28.3687 44.9379C23.5112 46.2005 18.3721 45.8151 13.7572 43.8424C9.14231 41.8697 5.31265 38.4211 2.86878 34.0374C0.424906 29.6538 -0.494967 24.583 0.253411 19.6203C1.00179 14.6575 3.37609 10.0835 7.00399 6.61546C10.6319 3.14743 15.3082 0.981539 20.2996 0.457428C25.291 -0.0666826 30.3152 1.08063 34.5844 3.71945L22.6667 23.0002H45.3333Z" fill="url(#paint0_linear_336_28546)"/>
<path d="M45.0002 23.0003C45.0002 19.1256 45.9934 15.3156 47.8851 11.9341C49.7768 8.55259 52.5037 5.71243 55.8056 3.68484C59.1074 1.65725 62.8739 0.509921 66.7453 0.3524C70.6168 0.194879 74.4641 1.03243 77.9197 2.78507L67.6668 23.0003L45.0002 23.0003Z" fill="#D6B7FE"/>
<defs>
<linearGradient id="paint0_linear_336_28546" x1="9.54386" y1="5.70192" x2="34.5965" y2="39.1054" gradientUnits="userSpaceOnUse">
<stop stop-color="#7835F9"/>
<stop offset="1" stop-color="#C576F5"/>
</linearGradient>
</defs>
</svg>
