<svg width="93" height="109" viewBox="0 0 93 109" fill="none" xmlns="http://www.w3.org/2000/svg">
<path fill-rule="evenodd" clip-rule="evenodd" d="M31 29C28.2386 29 26 31.2386 26 34V104C26 106.761 28.2386 109 31 109H69.1592L93 85.1592V34C93 31.2386 90.7614 29 88 29H31Z" fill="#E4E5E7"/>
<path fill-rule="evenodd" clip-rule="evenodd" d="M93 85.1592V85H72C70.3431 85 69 86.3431 69 88V109H69.1592L93 85.1592Z" fill="#C3C8CC"/>
<path d="M31.9019 4.5C33.0566 2.5 35.9434 2.5 37.0981 4.5L61.7798 47.25C62.9345 49.25 61.4911 51.75 59.1817 51.75H9.81828C7.50888 51.75 6.0655 49.25 7.2202 47.25L31.9019 4.5Z" fill="#F6C566"/>
<path d="M36.3204 37.168H32.6634L32.3074 19H36.6926L36.3204 37.168ZM34.5081 45C34.055 45 33.6343 44.8757 33.246 44.627C32.8576 44.3666 32.5502 44.0291 32.3236 43.6148C32.1079 43.1885 32 42.7268 32 42.2295C32 41.7441 32.1079 41.2942 32.3236 40.8798C32.5502 40.4536 32.8576 40.122 33.246 39.8852C33.6343 39.6366 34.055 39.5123 34.5081 39.5123C34.9504 39.5123 35.3603 39.6366 35.7379 39.8852C36.1262 40.122 36.4337 40.4536 36.6602 40.8798C36.8867 41.2942 37 41.7441 37 42.2295C37 42.7268 36.8867 43.1885 36.6602 43.6148C36.4337 44.0291 36.1262 44.3666 35.7379 44.627C35.3603 44.8757 34.9504 45 34.5081 45Z" fill="black"/>
</svg>
