<svg width="443" height="104" viewBox="0 0 443 104" fill="none" xmlns="http://www.w3.org/2000/svg">
<path d="M109.531 15.8H120.406V71H109.531V15.8ZM128.653 15.8H166.303V26.3H139.528V38.075H163.228V48.575H139.528V60.5H167.353V71H128.653V15.8ZM182.354 50.6C182.354 52.35 182.879 54.025 183.929 55.625C184.979 57.225 186.354 58.525 188.054 59.525C189.804 60.525 191.704 61.025 193.754 61.025C196.004 61.025 198.004 60.525 199.754 59.525C201.504 58.525 202.879 57.225 203.879 55.625C204.929 54.025 205.454 52.35 205.454 50.6V15.8H216.179V50.825C216.179 54.875 215.179 58.475 213.179 61.625C211.179 64.725 208.479 67.175 205.079 68.975C201.679 70.725 197.904 71.6 193.754 71.6C189.654 71.6 185.904 70.725 182.504 68.975C179.154 67.175 176.479 64.725 174.479 61.625C172.479 58.475 171.479 54.875 171.479 50.825V15.8H182.354V50.6ZM223.293 71V13.55H223.368L254.043 57.05L249.393 56L279.993 13.55H280.143V71H269.268V38.075L269.943 43.7L251.268 70.25H251.118L231.918 43.7L233.793 38.525V71H223.293ZM323.526 15.8C328.076 15.8 331.926 16.575 335.076 18.125C338.226 19.625 340.626 21.775 342.276 24.575C343.926 27.325 344.751 30.6 344.751 34.4C344.751 36.65 344.401 38.925 343.701 41.225C343.051 43.475 341.976 45.525 340.476 47.375C339.026 49.225 337.051 50.725 334.551 51.875C332.101 52.975 329.076 53.525 325.476 53.525H317.676V71H306.801V15.8H323.526ZM325.401 42.95C327.051 42.95 328.426 42.675 329.526 42.125C330.626 41.525 331.476 40.8 332.076 39.95C332.726 39.05 333.176 38.125 333.426 37.175C333.726 36.225 333.876 35.4 333.876 34.7C333.876 34.15 333.776 33.425 333.576 32.525C333.426 31.575 333.076 30.625 332.526 29.675C331.976 28.725 331.126 27.925 329.976 27.275C328.876 26.625 327.376 26.3 325.476 26.3H317.676V42.95H325.401ZM336.691 71L361.591 13.625H362.191L387.091 71H374.491L358.591 30.65L366.466 25.25L347.416 71H336.691ZM353.716 51.05H370.291L374.116 60.2H350.341L353.716 51.05ZM395.918 53.825L375.593 15.8H389.018L403.268 44.45L400.043 44.675L414.068 15.8H427.493L406.793 53.825V71H395.918V53.825Z" fill="#595959"/>
<path d="M30.5001 42.5C30.5001 35.7409 32.7453 29.1733 36.883 23.8287C41.0208 18.4841 46.8167 14.6654 53.3603 12.9724C59.904 11.2793 66.8246 11.8079 73.0353 14.475C79.2459 17.1421 84.3946 21.7967 87.6728 27.7077C90.9509 33.6187 92.1727 40.4511 91.1462 47.1318C90.1198 53.8125 86.9032 59.963 82.0018 64.6173C77.1004 69.2715 70.7918 72.1657 64.067 72.8454C57.3421 73.5251 50.582 71.9517 44.8484 68.3723L61 42.5L30.5001 42.5Z" fill="white"/>
<path d="M61 42.5C61 49.2533 58.7586 55.8156 54.6274 61.1579C50.4961 66.5002 44.7087 70.3203 38.1725 72.0191C31.6364 73.718 24.7213 73.1995 18.5115 70.545C12.3018 67.8906 7.14864 63.2502 3.86019 57.3516C0.571748 51.453 -0.666021 44.6298 0.340986 37.952C1.34799 31.2742 4.54283 25.1195 9.42448 20.4529C14.3061 15.7864 20.5985 12.872 27.3149 12.1668C34.0313 11.4615 40.7918 13.0053 46.5363 16.5561L30.5 42.5H61Z" fill="#737373"/>
<path d="M30.5001 42.5C30.5001 37.2863 31.8366 32.1596 34.382 27.6095C36.9274 23.0593 40.5968 19.2376 45.0397 16.5094C49.4826 13.7811 54.5507 12.2372 59.7601 12.0253C64.9695 11.8133 70.1463 12.9403 74.7961 15.2986L61 42.5L30.5001 42.5Z" fill="white"/>
</svg>
