<svg width="101" height="19" viewBox="0 0 101 19" fill="none" xmlns="http://www.w3.org/2000/svg">
<path d="M7 7.33337C7 5.7821 7.51529 4.27477 8.46494 3.04815C9.4146 1.82152 10.7448 0.945092 12.2466 0.556526C13.7484 0.167959 15.3368 0.289267 16.7622 0.901397C18.1876 1.51353 19.3693 2.5818 20.1216 3.93841C20.874 5.29503 21.1544 6.86313 20.9188 8.39641C20.6832 9.92969 19.945 11.3413 18.8201 12.4095C17.6952 13.4776 16.2473 14.1419 14.7039 14.2979C13.1605 14.4539 11.609 14.0928 10.2931 13.2713L14 7.33337L7 7.33337Z" fill="#D6B7FE"/>
<path d="M14 7.33337C14 8.88331 13.4856 10.3894 12.5374 11.6155C11.5893 12.8416 10.261 13.7184 8.76091 14.1083C7.26082 14.4982 5.67373 14.3792 4.24855 13.77C2.82336 13.1607 1.64067 12.0957 0.885947 10.7419C0.131221 9.38817 -0.152858 7.82219 0.0782592 6.28958C0.309376 4.75697 1.04262 3.3444 2.163 2.27339C3.28338 1.20238 4.72754 0.533505 6.269 0.371647C7.81047 0.209789 9.36206 0.564107 10.6805 1.37904L7 7.33337H14Z" fill="url(#paint0_linear_1206_4161)"/>
<path d="M7 7.33337C7 6.13678 7.30674 4.96016 7.89094 3.91587C8.47513 2.87157 9.31728 1.99446 10.337 1.3683C11.3566 0.742129 12.5198 0.387807 13.7154 0.339161C14.911 0.290515 16.0991 0.549169 17.1663 1.09043L14 7.33337L7 7.33337Z" fill="#D6B7FE"/>
<path d="M26.71 0.751999H29.32V14H26.71V0.751999ZM30.9393 0.751999H39.9753V3.272H33.5493V6.098H39.2373V8.618H33.5493V11.48H40.2273V14H30.9393V0.751999ZM43.4676 9.104C43.4676 9.524 43.5936 9.926 43.8456 10.31C44.0976 10.694 44.4276 11.006 44.8356 11.246C45.2556 11.486 45.7116 11.606 46.2036 11.606C46.7436 11.606 47.2236 11.486 47.6436 11.246C48.0636 11.006 48.3936 10.694 48.6336 10.31C48.8856 9.926 49.0116 9.524 49.0116 9.104V0.751999H51.5856V9.158C51.5856 10.13 51.3456 10.994 50.8656 11.75C50.3856 12.494 49.7376 13.082 48.9216 13.514C48.1056 13.934 47.1996 14.144 46.2036 14.144C45.2196 14.144 44.3196 13.934 43.5036 13.514C42.6996 13.082 42.0576 12.494 41.5776 11.75C41.0976 10.994 40.8576 10.13 40.8576 9.158V0.751999H43.4676V9.104ZM52.933 14V0.211999H52.951L60.313 10.652L59.197 10.4L66.541 0.211999H66.577V14H63.967V6.098L64.129 7.448L59.647 13.82H59.611L55.003 7.448L55.453 6.206V14H52.933ZM76.2689 0.751999C77.3609 0.751999 78.2849 0.937999 79.0409 1.31C79.7969 1.67 80.3729 2.186 80.7689 2.858C81.1649 3.518 81.3629 4.304 81.3629 5.216C81.3629 5.756 81.2789 6.302 81.1109 6.854C80.9549 7.394 80.6969 7.886 80.3369 8.33C79.9889 8.774 79.5149 9.134 78.9149 9.41C78.3269 9.674 77.6009 9.806 76.7369 9.806H74.8649V14H72.2549V0.751999H76.2689ZM76.7189 7.268C77.1149 7.268 77.4449 7.202 77.7089 7.07C77.9729 6.926 78.1769 6.752 78.3209 6.548C78.4769 6.332 78.5849 6.11 78.6449 5.882C78.7169 5.654 78.7529 5.456 78.7529 5.288C78.7529 5.156 78.7289 4.982 78.6809 4.766C78.6449 4.538 78.5609 4.31 78.4289 4.082C78.2969 3.854 78.0929 3.662 77.8169 3.506C77.5529 3.35 77.1929 3.272 76.7369 3.272H74.8649V7.268H76.7189ZM79.0683 14L85.0443 0.229999H85.1883L91.1643 14H88.1403L84.3243 4.316L86.2143 3.02L81.6423 14H79.0683ZM83.1543 9.212H87.1323L88.0503 11.408H82.3443L83.1543 9.212ZM92.923 9.878L88.045 0.751999H91.267L94.687 7.628L93.913 7.682L97.279 0.751999H100.501L95.533 9.878V14H92.923V9.878Z" fill="white"/>
<defs>
<linearGradient id="paint0_linear_1206_4161" x1="2.94737" y1="1.99127" x2="10.6842" y2="12.3071" gradientUnits="userSpaceOnUse">
<stop stop-color="#7835F9"/>
<stop offset="1" stop-color="#C576F5"/>
</linearGradient>
</defs>
</svg>
