<svg width="163" height="31" viewBox="0 0 163 31" fill="none" xmlns="http://www.w3.org/2000/svg">
<path d="M0.975586 2.032H6.48559V30H0.975586V2.032ZM10.6641 2.032H29.7401V7.352H16.1741V13.318H28.1821V18.638H16.1741V24.68H30.2721V30H10.6641V2.032ZM37.8727 19.664C37.8727 20.5507 38.1387 21.3993 38.6707 22.21C39.2027 23.0207 39.8994 23.6793 40.7607 24.186C41.6474 24.6927 42.61 24.946 43.6487 24.946C44.7887 24.946 45.802 24.6927 46.6887 24.186C47.5754 23.6793 48.272 23.0207 48.7787 22.21C49.3107 21.3993 49.5767 20.5507 49.5767 19.664V2.032H55.0107V19.778C55.0107 21.83 54.504 23.654 53.4907 25.25C52.4774 26.8207 51.1094 28.062 49.3867 28.974C47.664 29.8607 45.7514 30.304 43.6487 30.304C41.5714 30.304 39.6714 29.8607 37.9487 28.974C36.2514 28.062 34.896 26.8207 33.8827 25.25C32.8694 23.654 32.3627 21.83 32.3627 19.778V2.032H37.8727V19.664ZM58.6154 30V0.891999H58.6534L74.1954 22.932L71.8394 22.4L87.3434 0.891999H87.4194V30H81.9094V13.318L82.2514 16.168L72.7894 29.62H72.7134L62.9854 16.168L63.9354 13.546V30H58.6154ZM109.4 2.032C111.705 2.032 113.656 2.42466 115.252 3.21C116.848 3.97 118.064 5.05933 118.9 6.478C119.736 7.87133 120.154 9.53067 120.154 11.456C120.154 12.596 119.977 13.7487 119.622 14.914C119.293 16.054 118.748 17.0927 117.988 18.03C117.253 18.9673 116.253 19.7273 114.986 20.31C113.745 20.8673 112.212 21.146 110.388 21.146H106.436V30H100.926V2.032H109.4ZM110.35 15.788C111.186 15.788 111.883 15.6487 112.44 15.37C112.997 15.066 113.428 14.6987 113.732 14.268C114.061 13.812 114.289 13.3433 114.416 12.862C114.568 12.3807 114.644 11.9627 114.644 11.608C114.644 11.3293 114.593 10.962 114.492 10.506C114.416 10.0247 114.239 9.54333 113.96 9.062C113.681 8.58067 113.251 8.17533 112.668 7.846C112.111 7.51667 111.351 7.352 110.388 7.352H106.436V15.788H110.35ZM116.07 30L128.686 0.929998H128.99L141.606 30H135.222L127.166 9.556L131.156 6.82L121.504 30H116.07ZM124.696 19.892H133.094L135.032 24.528H122.986L124.696 19.892ZM146.079 21.298L135.781 2.032H142.583L149.803 16.548L148.169 16.662L155.275 2.032H162.077L151.589 21.298V30H146.079V21.298Z" fill="white"/>
</svg>
