<svg width="103" height="20" viewBox="0 0 103 20" fill="none" xmlns="http://www.w3.org/2000/svg">
<path d="M0.589845 1.336H4.06985V19H0.589845V1.336ZM6.70891 1.336H18.7569V4.696H10.1889V8.464H17.7729V11.824H10.1889V15.64H19.0929V19H6.70891V1.336ZM23.8933 12.472C23.8933 13.032 24.0613 13.568 24.3973 14.08C24.7333 14.592 25.1733 15.008 25.7173 15.328C26.2773 15.648 26.8853 15.808 27.5413 15.808C28.2613 15.808 28.9013 15.648 29.4613 15.328C30.0213 15.008 30.4613 14.592 30.7813 14.08C31.1173 13.568 31.2853 13.032 31.2853 12.472V1.336H34.7173V12.544C34.7173 13.84 34.3973 14.992 33.7573 16C33.1173 16.992 32.2533 17.776 31.1653 18.352C30.0773 18.912 28.8693 19.192 27.5413 19.192C26.2293 19.192 25.0293 18.912 23.9413 18.352C22.8693 17.776 22.0133 16.992 21.3733 16C20.7333 14.992 20.4133 13.84 20.4133 12.544V1.336H23.8933V12.472ZM36.9939 19V0.615999H37.0179L46.8339 14.536L45.3459 14.2L55.1379 0.615999H55.1859V19H51.7059V8.464L51.9219 10.264L45.9459 18.76H45.8979L39.7539 10.264L40.3539 8.608V19H36.9939ZM69.0684 1.336C70.5244 1.336 71.7564 1.584 72.7644 2.08C73.7724 2.56 74.5404 3.248 75.0684 4.144C75.5964 5.024 75.8604 6.072 75.8604 7.288C75.8604 8.008 75.7484 8.736 75.5244 9.472C75.3164 10.192 74.9724 10.848 74.4924 11.44C74.0284 12.032 73.3964 12.512 72.5964 12.88C71.8124 13.232 70.8444 13.408 69.6924 13.408H67.1964V19H63.7164V1.336H69.0684ZM69.6684 10.024C70.1964 10.024 70.6364 9.936 70.9884 9.76C71.3404 9.568 71.6124 9.336 71.8044 9.064C72.0124 8.776 72.1564 8.48 72.2364 8.176C72.3324 7.872 72.3804 7.608 72.3804 7.384C72.3804 7.208 72.3484 6.976 72.2844 6.688C72.2364 6.384 72.1244 6.08 71.9484 5.776C71.7724 5.472 71.5004 5.216 71.1324 5.008C70.7804 4.8 70.3004 4.696 69.6924 4.696H67.1964V10.024H69.6684ZM73.281 19L81.249 0.639999H81.441L89.409 19H85.377L80.289 6.088L82.809 4.36L76.713 19H73.281ZM78.729 12.616H84.033L85.257 15.544H77.649L78.729 12.616ZM92.2338 13.504L85.7298 1.336H90.0258L94.5858 10.504L93.5538 10.576L98.0418 1.336H102.338L95.7138 13.504V19H92.2338V13.504Z" fill="#595959"/>
</svg>
