<svg width="124" height="124" viewBox="0 0 124 124" fill="none" xmlns="http://www.w3.org/2000/svg">
<mask id="path-1-inside-1_336_3446" fill="white">
<path d="M124 62C124 75.728 119.444 89.0679 111.046 99.9276C102.648 110.787 90.8832 118.553 77.5967 122.006C64.3101 125.46 50.2531 124.406 37.63 119.01C25.0069 113.614 14.5317 104.181 7.84696 92.1902C1.16224 80.1996 -1.35388 66.3295 0.693153 52.755C2.74019 39.1804 9.23461 26.6691 19.158 17.183C29.0814 7.69694 41.8725 1.77259 55.5254 0.338991C69.1784 -1.09461 82.9211 2.04363 94.5985 9.26158L62 62H124Z"/>
</mask>
<path d="M124 62C124 75.728 119.444 89.0679 111.046 99.9276C102.648 110.787 90.8832 118.553 77.5967 122.006C64.3101 125.46 50.2531 124.406 37.63 119.01C25.0069 113.614 14.5317 104.181 7.84696 92.1902C1.16224 80.1996 -1.35388 66.3295 0.693153 52.755C2.74019 39.1804 9.23461 26.6691 19.158 17.183C29.0814 7.69694 41.8725 1.77259 55.5254 0.338991C69.1784 -1.09461 82.9211 2.04363 94.5985 9.26158L62 62H124Z" stroke="#8035F9" stroke-width="2" mask="url(#path-1-inside-1_336_3446)"/>
</svg>
