<svg width="124" height="124" viewBox="0 0 124 124" fill="none" xmlns="http://www.w3.org/2000/svg">
<mask id="path-1-inside-1_336_3445" fill="white">
<path d="M1.7468e-05 62C1.62668e-05 48.2602 4.56406 34.9095 12.9752 24.0451C21.3864 13.1807 33.1683 5.41808 46.4701 1.97649C59.7719 -1.4651 73.8402 -0.390651 86.4651 5.03107C99.09 10.4528 109.556 19.9146 116.22 31.9303C122.884 43.9461 125.367 57.835 123.281 71.4155C121.194 84.9959 114.656 97.4986 104.692 106.96C94.7287 116.421 81.9047 122.304 68.2345 123.686C54.5643 125.067 40.8224 121.869 29.1673 114.593L62 62L1.7468e-05 62Z"/>
</mask>
<path d="M1.7468e-05 62C1.62668e-05 48.2602 4.56406 34.9095 12.9752 24.0451C21.3864 13.1807 33.1683 5.41808 46.4701 1.97649C59.7719 -1.4651 73.8402 -0.390651 86.4651 5.03107C99.09 10.4528 109.556 19.9146 116.22 31.9303C122.884 43.9461 125.367 57.835 123.281 71.4155C121.194 84.9959 114.656 97.4986 104.692 106.96C94.7287 116.421 81.9047 122.304 68.2345 123.686C54.5643 125.067 40.8224 121.869 29.1673 114.593L62 62L1.7468e-05 62Z" stroke="#8035F9" stroke-width="2" mask="url(#path-1-inside-1_336_3445)"/>
</svg>
