<svg width="116" height="78" viewBox="0 0 116 78" fill="none" xmlns="http://www.w3.org/2000/svg">
<path d="M38.6667 39C38.6667 30.4311 41.5131 22.1049 46.7588 15.3292C52.0045 8.55359 59.3523 3.71238 67.648 1.56601C75.9438 -0.580357 84.7175 0.0897244 92.5911 3.47102C100.465 6.8523 106.992 12.7532 111.148 20.2469C115.304 27.7406 116.853 36.4025 115.552 44.872C114.25 53.3416 110.172 61.139 103.959 67.0394C97.7448 72.9398 89.747 76.609 81.2215 77.4707C72.696 78.3324 64.1258 76.3377 56.857 71.7999L77.3333 39L38.6667 39Z" fill="#D6B7FE"/>
<path d="M77.3333 39C77.3333 47.5616 74.4918 55.8811 69.2544 62.6538C64.017 69.4265 56.6799 74.2695 48.3936 76.4232C40.1074 78.577 31.3406 77.9197 23.4682 74.5544C15.5957 71.1892 9.06276 65.3063 4.8938 57.8283C0.72484 50.3503 -0.844356 41.7001 0.432289 33.2343C1.70893 24.7684 5.75922 16.9657 11.948 11.0496C18.1368 5.13359 26.114 1.43883 34.6288 0.544757C43.1435 -0.349314 51.7142 1.60787 58.9969 6.10939L38.6667 39H77.3333Z" fill="url(#paint0_linear_1352_4150)"/>
<path d="M38.6667 39C38.6667 32.3903 40.3611 25.8909 43.5881 20.1224C46.815 14.3539 51.4669 9.50891 57.0994 6.05008C62.7319 2.59125 69.1571 0.634037 75.7614 0.365329C82.3657 0.096614 88.9286 1.52538 94.8235 4.51518L77.3333 39L38.6667 39Z" fill="#D6B7FE"/>
<defs>
<linearGradient id="paint0_linear_1352_4150" x1="16.2807" y1="9.49124" x2="59.0175" y2="66.4737" gradientUnits="userSpaceOnUse">
<stop stop-color="#7835F9"/>
<stop offset="1" stop-color="#C576F5"/>
<stop offset="1.0001" stop-color="#C576F5"/>
</linearGradient>
</defs>
</svg>
