<svg width="124" height="124" viewBox="0 0 124 124" fill="none" xmlns="http://www.w3.org/2000/svg">
<circle cx="62" cy="62" r="62" fill="url(#paint0_linear_1346_4154)"/>
<path d="M38.7143 98.4854H37.1146V82.7354H38.7143V98.4854ZM34.5307 90.1357H32.0434V88.6416H34.5307V90.1357ZM35.6029 97.6855H34.0209V83.0957H35.6029V97.6855ZM32.474 86.04H25.2406V84.6777H32.474V86.04ZM24.9154 93.291C26.2982 93.291 27.6898 93.2676 29.0902 93.2207C30.4906 93.168 31.727 93.0684 32.7992 92.9219L32.9047 94.1348C31.809 94.3516 30.5785 94.498 29.2133 94.5742C27.848 94.6504 26.4828 94.6885 25.1176 94.6885L24.9154 93.291ZM27.974 93.6953H26.4623V85.5391H27.974V93.6953ZM31.2523 93.6953H29.7143V85.5391H31.2523V93.6953ZM52.2596 98.5293H50.5809V82.7354H52.2596V98.5293ZM43.8221 83.9219C44.6073 83.9219 45.3075 84.1504 45.9227 84.6074C46.5379 85.0645 47.0184 85.709 47.3641 86.541C47.7098 87.373 47.8827 88.3428 47.8827 89.4502C47.8827 90.5635 47.7098 91.5361 47.3641 92.3682C47.0184 93.2002 46.5379 93.8447 45.9227 94.3018C45.3075 94.7529 44.6073 94.9785 43.8221 94.9785C43.0369 94.9785 42.3338 94.7529 41.7127 94.3018C41.0975 93.8447 40.617 93.2002 40.2713 92.3682C39.9256 91.5361 39.7528 90.5635 39.7528 89.4502C39.7528 88.3428 39.9256 87.373 40.2713 86.541C40.617 85.709 41.0975 85.0645 41.7127 84.6074C42.3338 84.1504 43.0369 83.9219 43.8221 83.9219ZM43.8221 85.416C43.3416 85.416 42.9139 85.5801 42.5389 85.9082C42.1639 86.2363 41.8739 86.7051 41.6688 87.3145C41.4696 87.918 41.37 88.6299 41.37 89.4502C41.37 90.2646 41.4696 90.9766 41.6688 91.5859C41.8739 92.1953 42.1639 92.6641 42.5389 92.9922C42.9139 93.3145 43.3416 93.4756 43.8221 93.4756C44.3026 93.4756 44.7274 93.3145 45.0965 92.9922C45.4715 92.6641 45.7616 92.1953 45.9666 91.5859C46.1717 90.9766 46.2743 90.2646 46.2743 89.4502C46.2743 88.6299 46.1717 87.918 45.9666 87.3145C45.7616 86.7051 45.4744 86.2363 45.1053 85.9082C44.7362 85.5801 44.3084 85.416 43.8221 85.416ZM68.5925 89.3271H64.2419V87.9824H68.5925V89.3271ZM61.6404 86.7432C61.6404 87.9502 61.4587 89.1162 61.0954 90.2412C60.7321 91.3604 60.2195 92.3535 59.5573 93.2207C58.8952 94.0879 58.1277 94.7529 57.2546 95.2158L56.1911 93.8623C56.9939 93.4814 57.7029 92.9189 58.3181 92.1748C58.9392 91.4248 59.4196 90.5752 59.7595 89.626C60.0993 88.6768 60.2693 87.7158 60.2693 86.7432V84.0449H61.6404V86.7432ZM61.9655 86.7432C61.9655 87.71 62.1325 88.6504 62.4665 89.5645C62.8064 90.4727 63.278 91.2812 63.8816 91.9902C64.4909 92.6934 65.1882 93.2236 65.9734 93.5811L64.9714 94.9346C64.0925 94.4834 63.3249 93.8447 62.6687 93.0186C62.0183 92.1865 61.5114 91.2314 61.1482 90.1533C60.7907 89.0693 60.612 87.9326 60.612 86.7432V84.0449H61.9655V86.7432ZM69.4187 98.5293H67.7575V82.7354H69.4187V98.5293ZM83.4474 98.5293H81.7687V82.7354H83.4474V98.5293ZM72.9357 88.1055H77.1896V84.0537H78.8244V94.7588H71.2746V84.0537H72.9357V88.1055ZM77.1896 93.3789V89.4238H72.9357V93.3789H77.1896ZM92.2203 84.9766C92.2203 86.0781 91.9244 87.1123 91.3326 88.0791C90.7467 89.04 89.9644 89.8545 88.9859 90.5225C88.0074 91.1904 86.9381 91.6533 85.7779 91.9111L85.0309 90.5137C86.0328 90.3145 86.9732 89.9395 87.8521 89.3887C88.731 88.8379 89.4342 88.1729 89.9615 87.3936C90.4889 86.6143 90.7525 85.8086 90.7525 84.9766V83.7988H92.2203V84.9766ZM92.5103 84.9766C92.5103 85.8027 92.7769 86.6084 93.3102 87.3936C93.8434 88.1787 94.5523 88.8496 95.4371 89.4062C96.3219 89.957 97.2623 90.3262 98.2584 90.5137L97.5113 91.9111C96.3629 91.6533 95.2994 91.1934 94.3209 90.5312C93.3424 89.8691 92.5572 89.0547 91.9654 88.0879C91.3736 87.1211 91.0777 86.084 91.0777 84.9766V83.7988H92.5103V84.9766ZM98.9264 96.4199H84.5123V95.04H98.9264V96.4199Z" fill="white"/>
<path d="M43.2069 39.59C45.0969 39.59 46.7069 39.9167 48.0369 40.57C49.3902 41.2 50.4169 42.11 51.1169 43.3C51.8402 44.49 52.2019 45.9367 52.2019 47.64C52.2019 48.6433 52.0502 49.635 51.7469 50.615C51.4436 51.595 50.9536 52.4933 50.2769 53.31C49.6236 54.1033 48.7486 54.745 47.6519 55.235C46.5552 55.7017 45.2252 55.935 43.6619 55.935H39.9519V65H36.2069V39.59H43.2069ZM43.6619 52.33C44.5952 52.33 45.3769 52.1783 46.0069 51.875C46.6369 51.5483 47.1269 51.14 47.4769 50.65C47.8502 50.16 48.1069 49.6583 48.2469 49.145C48.4102 48.6083 48.4919 48.13 48.4919 47.71C48.4919 47.2433 48.4102 46.7533 48.2469 46.24C48.1069 45.7033 47.8619 45.2133 47.5119 44.77C47.1619 44.3033 46.6836 43.93 46.0769 43.65C45.4702 43.3467 44.7119 43.195 43.8019 43.195H39.9519V52.33H43.6619ZM49.4448 65L60.6098 38.575H60.8198L71.9848 65H67.7148L59.5948 44.42L62.2898 42.635L53.1198 65H49.4448ZM56.2348 55.48H65.2648L66.5598 58.7H55.1148L56.2348 55.48ZM77.2146 56.635L67.7996 39.59H72.4196L79.7346 53.45L78.6146 53.52L85.8596 39.59H90.4446L80.9596 56.635V65H77.2146V56.635Z" fill="white"/>
<defs>
<linearGradient id="paint0_linear_1346_4154" x1="26.1053" y1="14.6842" x2="94.6316" y2="106.053" gradientUnits="userSpaceOnUse">
<stop stop-color="#7835F9"/>
<stop offset="1" stop-color="#C576F5"/>
<stop offset="1.0001" stop-color="#C576F5"/>
</linearGradient>
</defs>
</svg>
