<svg width="214" height="214" viewBox="0 0 214 214" fill="none" xmlns="http://www.w3.org/2000/svg">
<circle cx="107" cy="107" r="107" fill="url(#paint0_linear_1346_4149)"/>
<path d="M79.3159 155.625H76.6909V137.811H79.3159V155.625ZM82.8843 147.244H78.523V145.084H82.8843V147.244ZM72.6714 139.684C72.6714 141.789 72.2111 143.712 71.2905 145.453C70.37 147.185 69.0438 148.684 67.312 149.951C65.5894 151.209 63.5295 152.207 61.1323 152.945L60.0249 150.867C62.0939 150.247 63.8622 149.441 65.3296 148.447C66.8062 147.445 67.9364 146.305 68.7202 145.029C69.5041 143.744 69.896 142.368 69.896 140.9V139.684H72.6714ZM71.2905 141.844H61.064V139.684H71.2905V141.844ZM80.3413 161.832H63.771V159.686H80.3413V161.832ZM66.3687 160.574H63.771V153.82H66.3687V160.574ZM102.451 155.994H99.8533V137.811H102.451V155.994ZM95.7517 141.83H82.7224V139.738H95.7517V141.83ZM82.0525 150.361C84.9236 150.343 87.5258 150.298 89.8591 150.225C92.2016 150.143 94.3845 149.992 96.408 149.773L96.531 151.688C94.4347 152.025 92.1925 152.248 89.8045 152.357C87.4255 152.467 84.9464 152.521 82.367 152.521L82.0525 150.361ZM87.5486 150.717H85.033V141.557H87.5486V150.717ZM93.4138 150.717H90.9119V141.557H93.4138V150.717ZM101.22 144.496H96.0252V142.377H101.22V144.496ZM101.22 149.24H96.0252V147.08H101.22V149.24ZM103.08 161.832H86.4822V159.686H103.08V161.832ZM89.1072 161.135H86.4822V154.531H89.1072V161.135ZM129.006 150.279H126.408V137.811H129.006V150.279ZM121.309 138.959C121.309 141.019 120.858 142.837 119.955 144.414C119.062 145.991 117.768 147.312 116.072 148.379C114.386 149.445 112.317 150.266 109.865 150.84L108.949 148.707C111.046 148.242 112.805 147.604 114.227 146.793C115.649 145.982 116.715 145.025 117.426 143.922C118.137 142.81 118.492 141.589 118.492 140.258V138.959H121.309ZM119.6 141.078H110.235V138.959H119.6V141.078ZM126.778 143.266H120.393V141.229H126.778V143.266ZM126.641 147.955H120.188V145.932H126.641V147.955ZM129.006 157.539H115.621V161.217H113.037V155.584H126.395V153.396H112.996V151.318H129.006V157.539ZM129.731 162.092H113.037V159.986H129.731V162.092ZM151.567 162.311H149.106V137.811H151.567V162.311ZM144.895 148.611H140.315V146.52H144.895V148.611ZM146.59 161.094H144.143V138.357H146.59V161.094ZM137.43 144.66C137.43 146.483 137.207 148.229 136.76 149.896C136.323 151.564 135.685 153.064 134.846 154.395C134.008 155.725 132.987 156.764 131.784 157.512L130.17 155.57C131.301 154.896 132.262 153.984 133.055 152.836C133.848 151.688 134.441 150.411 134.833 149.008C135.224 147.595 135.42 146.146 135.42 144.66V141.68H137.43V144.66ZM137.922 144.66C137.922 146.091 138.114 147.477 138.497 148.816C138.879 150.147 139.458 151.355 140.233 152.439C141.008 153.515 141.951 154.376 143.063 155.023L141.504 156.938C140.31 156.208 139.299 155.219 138.469 153.971C137.649 152.713 137.029 151.286 136.61 149.691C136.2 148.096 135.995 146.419 135.995 144.66V141.68H137.922V144.66ZM142.147 142.691H130.936V140.572H142.147V142.691Z" fill="white"/>
<path d="M129.1 60H81.9C78.6255 60 76.0295 62.6144 76.0295 65.875L76 101.125C76 104.386 78.6255 107 81.9 107H129.1C132.375 107 135 104.386 135 101.125V65.875C135 62.6144 132.375 60 129.1 60ZM129.1 101.125H81.9V83.5H129.1V101.125ZM129.1 71.75H81.9V65.875H129.1V71.75Z" fill="white"/>
<defs>
<linearGradient id="paint0_linear_1346_4149" x1="45.0526" y1="25.3421" x2="163.316" y2="183.026" gradientUnits="userSpaceOnUse">
<stop stop-color="#7835F9"/>
<stop offset="1" stop-color="#C576F5"/>
<stop offset="1.0001" stop-color="#C576F5"/>
</linearGradient>
</defs>
</svg>
