<svg width="214" height="214" viewBox="0 0 214 214" fill="none" xmlns="http://www.w3.org/2000/svg">
<circle cx="107" cy="107" r="107" fill="url(#paint0_linear_1346_4150)"/>
<path d="M74.3559 82C74.3559 85.5417 75.2564 88.7839 77.0572 91.7266C78.8581 94.6693 81.268 96.9219 84.2871 98.4844C85.0286 98.901 85.5715 99.5 85.9158 100.281C86.2601 101.062 86.2733 101.844 85.9555 102.625C85.6377 103.458 85.0816 104.057 84.2871 104.422C83.4926 104.786 82.7246 104.76 81.9831 104.344C77.8517 102.26 74.4883 99.2526 71.893 95.3203C69.2977 91.388 68 86.9479 68 82C68 77.1042 69.2579 72.7031 71.7738 68.7969C74.2897 64.8906 77.5869 61.8958 81.6653 59.8125C82.4068 59.3958 83.188 59.3568 84.009 59.6953C84.83 60.0339 85.4258 60.6198 85.7966 61.4531C86.1674 62.1823 86.1939 62.9375 85.8761 63.7188C85.5583 64.5 85.0286 65.099 84.2871 65.5156C81.268 67.0781 78.8581 69.3307 77.0572 72.2734C75.2564 75.2161 74.3559 78.4583 74.3559 82ZM112.492 107C105.447 107 99.4486 104.565 94.4963 99.6953C89.544 94.8255 87.0678 88.9271 87.0678 82C87.0678 75.0729 89.544 69.1745 94.4963 64.3047C99.4486 59.4349 105.447 57 112.492 57C115.458 57 118.265 57.4688 120.913 58.4062C123.561 59.3438 125.971 60.6458 128.143 62.3125C128.832 62.8333 129.176 63.5104 129.176 64.3438C129.176 65.1771 128.858 65.9062 128.222 66.5312C127.64 67.1042 126.912 67.4167 126.038 67.4688C125.164 67.5208 124.356 67.2865 123.614 66.7656C122.025 65.6198 120.291 64.7474 118.41 64.1484C116.53 63.5495 114.557 63.25 112.492 63.25C107.195 63.25 102.693 65.0729 98.9852 68.7188C95.2775 72.3646 93.4237 76.7917 93.4237 82C93.4237 87.2083 95.2775 91.6354 98.9852 95.2812C102.693 98.9271 107.195 100.75 112.492 100.75C114.557 100.75 116.53 100.451 118.41 99.8516C120.291 99.2526 122.025 98.3802 123.614 97.2344C124.356 96.7135 125.164 96.4792 126.038 96.5312C126.912 96.5833 127.64 96.8958 128.222 97.4688C128.858 98.0938 129.176 98.8229 129.176 99.6562C129.176 100.49 128.832 101.167 128.143 101.688C125.971 103.354 123.561 104.656 120.913 105.594C118.265 106.531 115.458 107 112.492 107ZM132.195 85.125H112.492C111.591 85.125 110.836 84.8255 110.227 84.2266C109.618 83.6276 109.314 82.8854 109.314 82C109.314 81.1146 109.618 80.3724 110.227 79.7734C110.836 79.1745 111.591 78.875 112.492 78.875H132.195L129.335 76.0625C128.752 75.4896 128.461 74.7604 128.461 73.875C128.461 72.9896 128.752 72.2604 129.335 71.6875C129.917 71.1146 130.659 70.8281 131.559 70.8281C132.46 70.8281 133.201 71.1146 133.784 71.6875L142.047 79.8125C142.682 80.4375 143 81.1667 143 82C143 82.8333 142.682 83.5625 142.047 84.1875L133.784 92.3125C133.201 92.8854 132.46 93.1719 131.559 93.1719C130.659 93.1719 129.917 92.8854 129.335 92.3125C128.752 91.7396 128.461 91.0104 128.461 90.125C128.461 89.2396 128.752 88.5104 129.335 87.9375L132.195 85.125Z" fill="white"/>
<path d="M78.3159 155.625H75.6909V137.811H78.3159V155.625ZM81.8843 147.244H77.523V145.084H81.8843V147.244ZM71.6714 139.684C71.6714 141.789 71.2111 143.712 70.2905 145.453C69.37 147.185 68.0438 148.684 66.312 149.951C64.5894 151.209 62.5295 152.207 60.1323 152.945L59.0249 150.867C61.0939 150.247 62.8622 149.441 64.3296 148.447C65.8062 147.445 66.9364 146.305 67.7202 145.029C68.5041 143.744 68.896 142.368 68.896 140.9V139.684H71.6714ZM70.2905 141.844H60.064V139.684H70.2905V141.844ZM79.3413 161.832H62.771V159.686H79.3413V161.832ZM65.3687 160.574H62.771V153.82H65.3687V160.574ZM101.451 155.994H98.8533V137.811H101.451V155.994ZM94.7517 141.83H81.7224V139.738H94.7517V141.83ZM81.0525 150.361C83.9236 150.343 86.5258 150.298 88.8591 150.225C91.2016 150.143 93.3845 149.992 95.408 149.773L95.531 151.688C93.4347 152.025 91.1925 152.248 88.8045 152.357C86.4255 152.467 83.9464 152.521 81.367 152.521L81.0525 150.361ZM86.5486 150.717H84.033V141.557H86.5486V150.717ZM92.4138 150.717H89.9119V141.557H92.4138V150.717ZM100.22 144.496H95.0252V142.377H100.22V144.496ZM100.22 149.24H95.0252V147.08H100.22V149.24ZM102.08 161.832H85.4822V159.686H102.08V161.832ZM88.1072 161.135H85.4822V154.531H88.1072V161.135ZM120.008 150.936H117.451V146.424H120.008V150.936ZM119.625 139.246C119.625 140.677 119.188 141.985 118.313 143.17C117.447 144.355 116.267 145.344 114.772 146.137C113.286 146.93 111.636 147.477 109.822 147.777L108.865 145.713C110.433 145.503 111.869 145.079 113.172 144.441C114.485 143.803 115.519 143.029 116.276 142.117C117.032 141.206 117.41 140.249 117.41 139.246V138.207H119.625V139.246ZM120.035 139.246C120.035 140.258 120.418 141.219 121.184 142.131C121.949 143.042 122.989 143.817 124.301 144.455C125.614 145.084 127.054 145.503 128.621 145.713L127.582 147.777C125.787 147.477 124.146 146.934 122.66 146.15C121.184 145.357 120.008 144.364 119.133 143.17C118.267 141.976 117.834 140.668 117.834 139.246V138.207H120.035V139.246ZM129.92 151.92H107.58V149.828H129.92V151.92ZM118.737 153.725C120.505 153.725 122.022 153.893 123.289 154.23C124.556 154.568 125.522 155.06 126.188 155.707C126.862 156.345 127.199 157.115 127.199 158.018C127.199 158.929 126.862 159.699 126.188 160.328C125.522 160.966 124.556 161.449 123.289 161.777C122.022 162.115 120.505 162.283 118.737 162.283C116.968 162.283 115.446 162.115 114.17 161.777C112.894 161.449 111.919 160.966 111.244 160.328C110.57 159.699 110.233 158.929 110.233 158.018C110.233 157.115 110.57 156.345 111.244 155.707C111.919 155.06 112.894 154.568 114.17 154.23C115.446 153.893 116.968 153.725 118.737 153.725ZM118.737 155.748C117.47 155.748 116.399 155.835 115.524 156.008C114.649 156.172 113.988 156.423 113.541 156.76C113.095 157.097 112.871 157.516 112.871 158.018C112.871 158.501 113.095 158.915 113.541 159.262C113.988 159.599 114.653 159.854 115.537 160.027C116.421 160.21 117.488 160.301 118.737 160.301C119.985 160.301 121.043 160.21 121.908 160.027C122.783 159.854 123.449 159.599 123.905 159.262C124.36 158.915 124.588 158.501 124.588 158.018C124.588 157.535 124.36 157.12 123.905 156.773C123.449 156.427 122.783 156.172 121.908 156.008C121.043 155.835 119.985 155.748 118.737 155.748ZM148.188 141.188H132.342V139.068H148.188V141.188ZM151.961 150.129H129.54V148.01H151.961V150.129ZM149.118 140.941C149.118 142.354 149.072 143.635 148.981 144.783C148.89 145.932 148.676 147.244 148.338 148.721L145.741 148.598C145.996 147.577 146.178 146.62 146.288 145.727C146.397 144.824 146.465 144.036 146.493 143.361C146.52 142.678 146.534 141.871 146.534 140.941V139.068H149.118V140.941ZM149.159 162.01H132.26V153.246H149.159V162.01ZM134.831 159.904H146.588V155.283H134.831V159.904Z" fill="white"/>
<defs>
<linearGradient id="paint0_linear_1346_4150" x1="45.0526" y1="25.3421" x2="163.316" y2="183.026" gradientUnits="userSpaceOnUse">
<stop stop-color="#7835F9"/>
<stop offset="1" stop-color="#C576F5"/>
<stop offset="1.0001" stop-color="#C576F5"/>
</linearGradient>
</defs>
</svg>
