<svg width="60" height="60" viewBox="0 0 60 60" fill="none" xmlns="http://www.w3.org/2000/svg">
<path d="M20 30.0375C20 25.6033 21.4723 21.2946 24.1856 17.7883C26.8988 14.282 30.6994 11.7768 34.9903 10.6661C39.2813 9.55537 43.8194 9.90213 47.892 11.6519C51.9645 13.4016 55.3407 16.4553 57.4903 20.3331C59.6399 24.211 60.4411 28.6934 59.768 33.0762C59.0949 37.4591 56.9857 41.4941 53.7717 44.5474C50.5576 47.6008 46.4209 49.4996 42.0111 49.9455C37.6014 50.3914 33.1685 49.3591 29.4088 47.0109L40 30.0375L20 30.0375Z" fill="#D6B7FE"/>
<path d="M40 30.0372C40 34.4676 38.5303 38.7728 35.8212 42.2776C33.1122 45.7824 29.3172 48.2885 25.0312 49.403C20.7452 50.5176 16.2107 50.1774 12.1387 48.436C8.06675 46.6945 4.68764 43.6502 2.53128 39.7805C0.374917 35.9108 -0.436736 31.4344 0.223598 27.0535C0.883931 22.6726 2.97891 18.6348 6.17999 15.5733C9.38108 12.5119 13.5072 10.5999 17.9114 10.1372C22.3156 9.67457 26.7488 10.6874 30.5156 13.0168L20 30.0372H40Z" fill="url(#paint0_linear_981_4150)"/>
<path d="M20 30.0375C20 26.6171 20.8764 23.2538 22.5455 20.2687C24.2147 17.2836 26.6208 14.7764 29.5342 12.9865C32.4475 11.1966 35.7709 10.1838 39.1869 10.0447C42.6029 9.9057 45.9976 10.6451 49.0466 12.1922L40 30.0375L20 30.0375Z" fill="#D6B7FE"/>
<defs>
<linearGradient id="paint0_linear_981_4150" x1="8.42105" y1="14.7669" x2="30.5395" y2="44.2444" gradientUnits="userSpaceOnUse">
<stop stop-color="#7835F9"/>
<stop offset="1" stop-color="#C576F5"/>
</linearGradient>
</defs>
</svg>
