<svg width="20" height="14" viewBox="0 0 20 14" fill="none" xmlns="http://www.w3.org/2000/svg">
    <path d="M10 0C5.455 0 1.573 2.827 0 6.818c1.573 3.991 5.455 6.818 10 6.818 4.546 0 8.427-2.827 10-6.818C18.427 2.828 14.546 0 10 0zm0 11.364a4.547 4.547 0 0 1-4.545-4.546A4.547 4.547 0 0 1 10 2.273a4.547 4.547 0 0 1 4.546 4.545A4.547 4.547 0 0 1 10 11.364zm0-7.273a2.724 2.724 0 0 0-2.727 2.727A2.724 2.724 0 0 0 10 9.545a2.724 2.724 0 0 0 2.727-2.727A2.724 2.724 0 0 0 10 4.091z" fill="#A176F5"/>
</svg>
